<?xml version="1.0" encoding="UTF-8" standalone="no"?>
<svg
   id="fb0462f1-4822-46c6-85a1-002b71cfcb82"
   data-name="Layer 1"
   width="661.08221"
   height="308.55118"
   viewBox="0 0 661.08222 308.55117"
   version="1.1"
   sodipodi:docname="publishing_gitvsannex_bw.svg"
   inkscape:version="1.2.2 (b0a8486541, 2022-12-01)"
   xmlns:inkscape="http://www.inkscape.org/namespaces/inkscape"
   xmlns:sodipodi="http://sodipodi.sourceforge.net/DTD/sodipodi-0.dtd"
   xmlns:xlink="http://www.w3.org/1999/xlink"
   xmlns="http://www.w3.org/2000/svg"
   xmlns:svg="http://www.w3.org/2000/svg"
   xmlns:rdf="http://www.w3.org/1999/02/22-rdf-syntax-ns#"
   xmlns:cc="http://creativecommons.org/ns#"
   xmlns:dc="http://purl.org/dc/elements/1.1/">
  <metadata
     id="metadata111">
    <rdf:RDF>
      <cc:Work
         rdf:about="">
        <dc:format>image/svg+xml</dc:format>
        <dc:type
           rdf:resource="http://purl.org/dc/dcmitype/StillImage" />
        <dc:title>nakamoto</dc:title>
      </cc:Work>
    </rdf:RDF>
  </metadata>
  <defs
     id="defs109">
    <rect
       id="rect1179"
       height="169.12248"
       width="322.47552"
       y="462.21036"
       x="207.90764" />
    <linearGradient
       id="linearGradient1173"
       inkscape:collect="always">
      <stop
         id="stop1169"
         offset="0"
         style="stop-color:#383232;stop-opacity:1;" />
      <stop
         id="stop1171"
         offset="1"
         style="stop-color:#666666;stop-opacity:0" />
    </linearGradient>
    <linearGradient
       id="linearGradient1165"
       inkscape:collect="always">
      <stop
         id="stop1161"
         offset="0"
         style="stop-color:#7f7f7f;stop-opacity:1" />
      <stop
         id="stop1163"
         offset="1"
         style="stop-color:#7c7c7c;stop-opacity:0" />
    </linearGradient>
    <linearGradient
       inkscape:collect="always"
       xlink:href="#linearGradient4817"
       id="linearGradient4842"
       gradientUnits="userSpaceOnUse"
       gradientTransform="rotate(90,191.60711,11.723527)"
       x1="238.40118"
       y1="135.11061"
       x2="253.08792"
       y2="135.11061" />
    <linearGradient
       id="linearGradient4817"
       inkscape:collect="always">
      <stop
         id="stop4813"
         offset="0"
         style="stop-color:#ccc;stop-opacity:1" />
      <stop
         id="stop4815"
         offset="1"
         style="stop-color:white;stop-opacity:1" />
    </linearGradient>
    <linearGradient
       gradientUnits="userSpaceOnUse"
       y2="92.636452"
       x2="17.805147"
       y1="47.91991"
       x1="44.183636"
       id="linearGradient1167"
       xlink:href="#linearGradient1165"
       inkscape:collect="always" />
    <linearGradient
       gradientUnits="userSpaceOnUse"
       y2="82.335396"
       x2="88.969688"
       y1="45.479412"
       x1="56.464634"
       id="linearGradient1175"
       xlink:href="#linearGradient1173"
       inkscape:collect="always" />
    <rect
       x="207.90764"
       y="462.21036"
       width="322.47552"
       height="169.12248"
       id="rect1179-6" />
    <rect
       x="207.90764"
       y="462.21036"
       width="322.47552"
       height="169.12248"
       id="rect1214" />
  </defs>
  <sodipodi:namedview
     inkscape:document-rotation="0"
     pagecolor="#ffffff"
     bordercolor="#666666"
     borderopacity="1"
     objecttolerance="10"
     gridtolerance="10"
     guidetolerance="10"
     inkscape:pageopacity="0"
     inkscape:pageshadow="2"
     inkscape:window-width="2560"
     inkscape:window-height="1371"
     id="namedview107"
     showgrid="false"
     inkscape:zoom="0.96420982"
     inkscape:cx="182.53288"
     inkscape:cy="-44.596103"
     inkscape:window-x="0"
     inkscape:window-y="32"
     inkscape:window-maximized="1"
     inkscape:current-layer="layer5"
     fit-margin-top="0"
     fit-margin-left="0"
     fit-margin-right="0"
     fit-margin-bottom="0"
     inkscape:showpageshadow="2"
     inkscape:pagecheckerboard="0"
     inkscape:deskcolor="#d1d1d1" />
  <title
     id="title2">nakamoto</title>
  <g
     inkscape:label="background 1"
     id="layer5"
     inkscape:groupmode="layer"
     transform="translate(-119.86234,-361.34628)">
    <g
       id="g13414"
       transform="matrix(3.7795276,0,0,3.7795276,241.52844,262.33249)"
       style="display:inline">
      <path
         sodipodi:nodetypes="cccc"
         inkscape:connector-curvature="0"
         id="path4840"
         d="M 57.667646,27.674258 C 36.742068,62.960008 61.435063,85.632901 45.859112,107.04016 L -32.190823,61.205761 c 16.724433,-24.252203 66.405677,0.06253 89.858469,-33.531503 z"
         style="fill:url(#linearGradient1167);fill-opacity:1;fill-rule:evenodd;stroke:none;stroke-width:0.380143px;stroke-linecap:butt;stroke-linejoin:miter;stroke-opacity:1" />
      <path
         style="display:inline;fill:url(#linearGradient1175);fill-opacity:1;fill-rule:evenodd;stroke:none;stroke-width:0.380143px;stroke-linecap:butt;stroke-linejoin:miter;stroke-opacity:1"
         d="M 43.85189,29.523226 C 71.52594,59.80706 119.2874,38.795839 135.2389,59.92474 L 60.722373,107.8349 C 42.382953,84.779707 69.17231,61.732979 43.85189,29.523226 Z"
         id="path4840-5"
         inkscape:connector-curvature="0"
         sodipodi:nodetypes="cccc" />
    </g>
  </g>
  <g
     inkscape:groupmode="layer"
     id="layer1"
     inkscape:label="Logos"
     style="display:inline"
     transform="translate(-196.27862,-329.20789)" />
  <g
     inkscape:groupmode="layer"
     id="layer2"
     inkscape:label="network"
     transform="translate(-196.27862,-329.20789)">
    <path
       inkscape:connector-curvature="0"
       d="M 513.49384,477"
       fill="none"
       stroke="#3f3d56"
       stroke-miterlimit="10"
       stroke-width="2"
       id="path14"
       style="stroke:#494949" />
    <path
       inkscape:connector-curvature="0"
       d="M 513.49384,395"
       fill="none"
       stroke="#3f3d56"
       stroke-miterlimit="10"
       stroke-width="2"
       id="path16"
       style="stroke:#494949" />
    <circle
       style="stroke-width:2.09837;fill:#eaeaea"
       cx="513.86255"
       cy="362.78186"
       r="33.573967"
       fill="#ffa200"
       id="circle44" />
    <path
       sodipodi:nodetypes="cccccccccccccccccccccccccccccccccccccccccscccccccccccc"
       inkscape:connector-curvature="0"
       id="path4436"
       d="m 512.27938,338.03568 -7.96966,3.67669 c -4.38328,2.02216 -8.70904,4.01245 -9.61277,4.42288 -6.66347,3.02621 -9.52344,4.40531 -9.69651,4.67574 -0.14374,0.22427 -0.1449,0.40135 -0.004,0.62098 0.15784,0.24676 26.31279,12.44983 27.35911,12.76505 h 7e-4 c 0.15942,0.0481 0.82572,0.0582 1.48071,0.023 1.12623,-0.0611 1.92115,-0.40175 14.64464,-6.27567 7.39941,-3.41604 13.54101,-6.34778 13.64808,-6.51514 0.13825,-0.21592 0.1363,-0.39539 -0.004,-0.61782 -0.17312,-0.27068 -3.0331,-1.6495 -9.69656,-4.67574 -0.90369,-0.41041 -5.22949,-2.40072 -9.61282,-4.42289 l -7.96961,-3.67668 h -1.28446 z m 21.37476,21.71094 -9.31363,4.30794 -9.31368,4.3079 h -1.4657 -1.46567 l -9.30721,-4.30508 -9.30722,-4.30473 -1.32933,0.0663 c -1.20604,0.0599 -1.59604,0.19026 -4.19631,1.40211 -1.57666,0.73485 -2.91347,1.45638 -2.97074,1.60349 -0.0568,0.14702 -0.0575,0.41063 -0.002,0.58538 0.10652,0.33157 25.77325,12.27301 27.38704,12.74216 h 3.6e-4 c 0.45579,0.13145 1.19288,0.19602 1.64852,0.14327 0.55736,-0.0651 4.92016,-1.97285 13.46597,-5.88885 6.95285,-3.18599 13.07162,-5.99943 13.59729,-6.25236 1.65734,-0.79738 1.52715,-1.34145 -0.54748,-2.29118 -0.82928,-0.37979 -2.08467,-0.96991 -2.79003,-1.31182 -1.01347,-0.49132 -1.57701,-0.64091 -2.68659,-0.71306 z m -41.7064,12.06684 c -0.95723,0.0115 -1.3414,0.17988 -3.83275,1.33863 -3.00685,1.3985 -3.47095,1.74146 -3.1153,2.30205 0.16567,0.26088 26.28514,12.45023 27.32085,12.74995 0.17861,0.0516 0.86081,0.0669 1.51576,0.0349 1.12963,-0.058 1.8825,-0.37979 14.63861,-6.26374 7.39627,-3.41168 13.53819,-6.34521 13.64844,-6.51898 0.35561,-0.56062 -0.10888,-0.90357 -3.11565,-2.30208 -2.84724,-1.32392 -2.94167,-1.35376 -4.28542,-1.3369 l -1.37405,0.0202 -9.04783,4.18945 c -4.97636,2.30418 -9.44002,4.2787 -9.91908,4.38758 -0.64387,0.14615 -1.09157,0.14327 -1.71586,-0.0115 -0.46449,-0.1153 -4.90485,-2.08968 -9.86758,-4.38761 l -9.02303,-4.17813 -1.37409,-0.0144 c -0.16803,-0.002 -0.31606,-0.003 -0.45302,-0.002 z"
       style="fill:#333333;fill-opacity:1;stroke-width:0.908175;stroke-linecap:butt;stroke-linejoin:round;stroke-miterlimit:100000" />
    <g
       style="display:inline"
       inkscape:label="background"
       id="layer4"
       inkscape:groupmode="layer" />
    <text
       transform="translate(0,-24)"
       y="0"
       x="-71.38916"
       style="font-style:normal;font-weight:normal;font-size:21.3333px;line-height:1;font-family:sans-serif;text-align:start;letter-spacing:0px;word-spacing:0px;white-space:pre;shape-inside:url(#rect1179);fill:#000000;fill-opacity:1;stroke:none"
       id="text1177"
       xml:space="preserve"><tspan
         x="207.9082"
         y="478.95491"
         id="tspan11582"><tspan
           style="font-weight:bold"
           id="tspan11580">Git
</tspan></tspan><tspan
         x="207.9082"
         y="500.28823"
         id="tspan11586"><tspan
           style="font-size:14.6667px"
           id="tspan11584">- dataset history (commit messages, run
</tspan></tspan><tspan
         x="207.9082"
         y="521.62154"
         id="tspan11590"><tspan
           style="font-size:14.6667px"
           id="tspan11588">   records)
</tspan></tspan><tspan
         x="207.9082"
         y="542.95485"
         id="tspan11594"><tspan
           style="font-size:14.6667px"
           id="tspan11592">- All files + content committed into Git         
</tspan></tspan><tspan
         x="207.9082"
         y="564.28817"
         id="tspan11598"><tspan
           style="font-size:14.6667px"
           id="tspan11596">  (useful with code, text, ...)
</tspan></tspan><tspan
         x="207.9082"
         y="585.62148"
         id="tspan11602"><tspan
           style="font-size:14.6667px"
           id="tspan11600">- File identity information of all annexed
</tspan></tspan><tspan
         x="207.9082"
         y="606.95479"
         id="tspan11606"><tspan
           style="font-size:14.6667px"
           id="tspan11604">   files (file name, identity hash, storage    
</tspan></tspan><tspan
         x="207.9082"
         y="628.28811"
         id="tspan11610"><tspan
           style="font-size:14.6667px"
           id="tspan11608">   locations where to retrieve it from)</tspan></tspan></text>
    <text
       xml:space="preserve"
       id="text1177-2"
       style="font-style:normal;font-weight:normal;font-size:21.3333px;line-height:1;font-family:sans-serif;text-align:start;letter-spacing:0px;word-spacing:0px;white-space:pre;shape-inside:url(#rect1179-6);fill:#000000;fill-opacity:1;stroke:none"
       x="-75.012215"
       y="0"
       transform="translate(330.60226,-24.924977)"><tspan
         x="207.9082"
         y="478.95491"
         id="tspan11614"><tspan
           style="font-weight:bold"
           id="tspan11612">git-annex
</tspan></tspan><tspan
         x="207.9082"
         y="500.28823"
         id="tspan11618"><tspan
           style="font-size:14.6667px"
           id="tspan11616">- contents of annexed files 
</tspan></tspan><tspan
         x="207.9082"
         y="521.62154"
         id="tspan11622"><tspan
           style="font-size:14.6667px"
           id="tspan11620">- organized in the &quot;annex&quot; or &quot;object tree&quot;
</tspan></tspan><tspan
         x="207.9082"
         y="542.95485"
         id="tspan11626"><tspan
           style="font-size:14.6667px"
           id="tspan11624">  of the dataset</tspan></tspan></text>
  </g>
</svg>
