<?xml version="1.0" encoding="UTF-8" standalone="no"?>
<svg
   id="f61e7f2c-3df8-44b9-b514-d2b672d0e0d5"
   data-name="Layer 1"
   width="938"
   height="666.03345"
   viewBox="0 0 937.99998 666.03344"
   version="1.1"
   sodipodi:docname="gitidentity_bw.svg"
   inkscape:version="1.2.2 (b0a8486541, 2022-12-01)"
   xmlns:inkscape="http://www.inkscape.org/namespaces/inkscape"
   xmlns:sodipodi="http://sodipodi.sourceforge.net/DTD/sodipodi-0.dtd"
   xmlns="http://www.w3.org/2000/svg"
   xmlns:svg="http://www.w3.org/2000/svg"
   xmlns:rdf="http://www.w3.org/1999/02/22-rdf-syntax-ns#"
   xmlns:cc="http://creativecommons.org/ns#"
   xmlns:dc="http://purl.org/dc/elements/1.1/">
  <metadata
     id="metadata127">
    <rdf:RDF>
      <cc:Work
         rdf:about="">
        <dc:format>image/svg+xml</dc:format>
        <dc:type
           rdf:resource="http://purl.org/dc/dcmitype/StillImage" />
        <dc:title>dev_focus</dc:title>
      </cc:Work>
    </rdf:RDF>
  </metadata>
  <defs
     id="defs125" />
  <sodipodi:namedview
     pagecolor="#ffffff"
     bordercolor="#666666"
     borderopacity="1"
     objecttolerance="10"
     gridtolerance="10"
     guidetolerance="10"
     inkscape:pageopacity="0"
     inkscape:pageshadow="2"
     inkscape:window-width="1278"
     inkscape:window-height="1369"
     id="namedview123"
     showgrid="false"
     fit-margin-top="0"
     fit-margin-left="0"
     fit-margin-right="0"
     fit-margin-bottom="0"
     inkscape:zoom="0.6394187"
     inkscape:cx="329.20526"
     inkscape:cy="388.63424"
     inkscape:window-x="0"
     inkscape:window-y="30"
     inkscape:window-maximized="0"
     inkscape:current-layer="f61e7f2c-3df8-44b9-b514-d2b672d0e0d5"
     showguides="false"
     inkscape:showpageshadow="2"
     inkscape:pagecheckerboard="0"
     inkscape:deskcolor="#d1d1d1" />
  <title
     id="title2">dev_focus</title>
  <circle
     cx="607.9093"
     cy="214.00267"
     r="36.395748"
     id="circle4"
     style="fill:#373737" />
  <path
     d="m 618.04923,178.60876 a 36.40082,36.40082 0 0 1 32.03938,53.66882 36.38708,36.38708 0 1 0 -60.45438,-39.98247 36.306,36.306 0 0 1 28.415,-13.68635 z"
     id="path6"
     inkscape:connector-curvature="0"
     style="fill:#373737" />
  <circle
     cx="539.89856"
     cy="107.01305"
     r="106.9125"
     id="circle8"
     style="fill:#373737" />
  <path
     d="m 455.98964,40.67893 a 106.89328,106.89328 0 0 1 148.1672,-11.20994 c -0.87424,-0.83106 -1.73925,-1.66885 -2.64768,-2.47643 A 106.91251,106.91251 0 0 0 459.44305,186.79981 c 0.90844,0.80758 1.84178,1.56849 2.76952,2.33937 A 106.89337,106.89337 0 0 1 455.98964,40.67893 Z"
     id="path10"
     inkscape:connector-curvature="0"
     style="fill:#373737" />
  <circle
     cx="538.99255"
     cy="144.16061"
     r="68.858902"
     id="circle12"
     style="fill:#dbdbdb" />
  <path
     d="m 490.06647,165.90553 c 0,0 9.06039,83.35551 -5.43622,92.41589 -14.49661,9.06038 83.35551,21.74492 83.35551,21.74492 0,0 -14.49662,-90.60382 21.74491,-114.16081 z"
     id="path14"
     inkscape:connector-curvature="0"
     style="fill:#dbdbdb" />
  <path
     d="m 577.04614,243.82481 c 0,0 26.98248,-12.60018 -11.87783,-8.11216 -38.86031,4.48802 -72.38788,-12.72672 -72.38788,-12.72672 0,0 -11.77434,-11.77849 -13.58641,0.906 -1.81207,12.68449 5.43623,36.24153 -34.42945,39.86568 -39.86568,3.62415 -76.10721,-7.2483 -90.60382,19.93284 -14.49661,27.18114 -7.2483,144.9661 -7.2483,144.9661 0,0 27.18114,97.85213 48.92606,112.34874 21.74492,14.49661 212.01292,-5.43623 212.01292,-5.43623 l 54.36229,-97.85207 V 323.55617 c 0,0 -7.2483,-39.86568 -57.98644,-28.99322 0,0 -32.61737,-7.24831 -30.8053,-23.557 1.81207,-16.30869 3.62416,-27.18114 3.62416,-27.18114 z"
     id="path16"
     inkscape:connector-curvature="0"
     style="fill:#666" />
  <path
     d="m 403.02984,610.25341 c 1.12,-4.88 1.87,-7.64 1.87,-7.64 l -0.57995,-3.97 -5.97,-40.54 -2.51,-17.1 c 21.74,-9.06 27.18,-50.74 27.18,-50.74 l 0.82,-0.49 3.71,-2.22 v -0.01 l 13.32,-7.99 0.27,-0.16 5.38,3.58 10.93,7.29 c 38.24,28.12 77.18,27.62 101.21,23.19 14.69,-2.71 23.82,-6.88 23.82,-6.88 l 26.36,-8.79 0.82,-0.27 0.81,0.12 15.46,2.34 0.28,0.05 1.28,0.19 -3.58,24.75 -5.19,35.97 c 13.71,7.26 25.9,20.9 36.56,37.71 q 3.54,5.58 6.86,11.61 c 2.88,5.2 5.63,10.61 8.25,16.15 0.32,0.66 0.63,1.33 0.94,2 1.01,2.17 2.01,4.36 2.98005,6.56 h -276.0801 c 0.36,-2.21 0.72,-4.32 1.07,-6.35 a 1.54822,1.54822 0 0 0 0.04,-0.21 c 0.13,-0.68 0.25,-1.34 0.36,-2 1.22,-6.60001 2.4,-12.10996 3.33,-16.15 z"
     id="path18"
     inkscape:connector-curvature="0"
     style="fill:#373737" />
  <path
     d="m 392.21435,261.94558 c 0,0 19.93284,36.24152 12.68454,81.54343 -7.2483,45.30191 21.74495,157.65064 21.74495,157.65064 l 21.74492,-5.43623 c 0,0 -14.49661,-94.228 -10.87246,-115.97289 3.62415,-21.74489 3.62415,-106.9125 -14.49661,-117.78495 -18.12076,-10.87245 -30.80534,0 -30.80534,0 z"
     id="path20"
     inkscape:connector-curvature="0"
     style="fill:#373737" />
  <path
     d="m 602.9527,299.60778 7.61685,200.62583 14.49661,9.06038 c 0,0 20.83888,-220.16727 9.96642,-220.16727 h -22.12254 a 9.97043,9.97043 0 0 0 -9.95734,10.48106 z"
     id="path22"
     inkscape:connector-curvature="0"
     style="fill:#373737" />
  <circle
     cx="436.61023"
     cy="487.54907"
     r="9.06038"
     id="circle24"
     style="fill:#7f7f7f" />
  <circle
     cx="617.81787"
     cy="496.60947"
     r="9.06038"
     id="circle26"
     style="fill:#7f7f7f" />
  <polygon
     points="522.067,126.963 542.362,105.218 539.644,126.963 610.133,126.963 605.784,105.218 614.482,126.963 625.717,126.963 625.717,58.104 506.12,58.104 506.12,126.963 "
     id="polygon28"
     style="fill:#373737"
     transform="translate(-26.020149,-0.01745996)" />
  <ellipse
     cx="469.2276"
     cy="129.664"
     rx="5.4362302"
     ry="9.9664202"
     id="ellipse30"
     style="fill:#dbdbdb" />
  <ellipse
     cx="608.75751"
     cy="129.664"
     rx="5.4362302"
     ry="9.9664202"
     id="ellipse32"
     style="fill:#dbdbdb" />
  <path
     d="m 645.90504,495.70342 c 0,0 -82.44948,-15.40265 -87.8857,11.77849 -5.43622,27.18114 91.50985,15.40265 91.50985,15.40265 z"
     id="path34"
     inkscape:connector-curvature="0"
     style="fill:#dbdbdb" />
  <path
     d="m 644.09296,309.05956 c 0,0 197.51632,157.65064 161.27479,195.70424 -36.24153,38.0536 -173.95932,27.18119 -173.95932,27.18119 l 9.06038,-45.3019 79.73135,-9.06038 -39.86567,-39.86572 -36.24153,3.62415 z"
     id="path36"
     inkscape:connector-curvature="0"
     style="fill:#d7d7d7" />
  <path
     d="m 352.34868,571.81062 25.36906,19.93284 c 0,0 18.12077,56.17437 45.30191,39.86568 27.18114,-16.30869 -25.36907,-74.29515 -25.36907,-74.29515 l -30.80529,-10.87246 z"
     id="path38"
     inkscape:connector-curvature="0"
     style="fill:#dbdbdb" />
  <path
     d="m 377.71774,280.06634 -25.30065,7.61381 c 0,0 -175.83982,130.104 -183.08812,166.34551 -7.2483,36.24151 34.42945,56.17433 34.42945,56.17433 l 157.65064,74.29513 16.30868,-43.48983 -74.29513,-38.05361 c 0,0 5.43623,-10.87245 -16.30868,-12.68453 -21.74491,-1.81208 -25.36909,-25.36903 -25.36909,-25.36903 0,0 43.48983,-67.04682 67.04682,-52.55021 23.55699,14.49661 30.8053,25.36907 30.8053,25.36907 z"
     id="path40"
     inkscape:connector-curvature="0"
     style="fill:#d7d7d7" />
  <path
     d="m 738.57984,616.46343 v 6.07 a 13.34008,13.34008 0 0 1 -0.91,4.87 13.68227,13.68227 0 0 1 -0.97,2 13.4373,13.4373 0 0 1 -11.55,6.56 h -446.55 a 13.43736,13.43736 0 0 1 -11.55,-6.56 13.68842,13.68842 0 0 1 -0.97,-2 13.34153,13.34153 0 0 1 -0.91,-4.87 v -6.07 a 13.42641,13.42641 0 0 1 13.43,-13.43 h 25.74 v -2.83 a 0.55908,0.55908 0 0 1 0.56,-0.56 h 13.43 a 0.55908,0.55908 0 0 1 0.56,0.56 v 2.83 h 8.39 v -2.83 a 0.55908,0.55908 0 0 1 0.56,-0.56 h 13.43 a 0.55908,0.55908 0 0 1 0.56,0.56 v 2.83 h 8.4 v -2.83 a 0.55908,0.55908 0 0 1 0.56,-0.56 h 13.43 a 0.55908,0.55908 0 0 1 0.56,0.56 v 2.83 h 8.39 v -2.83 a 0.55908,0.55908 0 0 1 0.56,-0.56 h 13.43 a 0.55908,0.55908 0 0 1 0.56,0.56 v 2.83 h 8.39 v -2.83 a 0.55908,0.55908 0 0 1 0.56,-0.56 h 13.43 a 0.55908,0.55908 0 0 1 0.56,0.56 v 2.83 h 8.4 v -2.83 a 0.55908,0.55908 0 0 1 0.56,-0.56 h 13.43 a 0.55908,0.55908 0 0 1 0.56,0.56 v 2.83 h 8.39 v -2.83 a 0.55908,0.55908 0 0 1 0.56,-0.56 h 105.2 a 0.55908,0.55908 0 0 1 0.56,0.56 v 2.83 h 8.4 v -2.83 a 0.55908,0.55908 0 0 1 0.56,-0.56 h 13.43 a 0.56552,0.56552 0 0 1 0.56,0.56 v 2.83 h 8.39 v -2.83 a 0.55908,0.55908 0 0 1 0.56,-0.56 h 13.43 a 0.55908,0.55908 0 0 1 0.56,0.56 v 2.83 h 8.39 v -2.83 a 0.55908,0.55908 0 0 1 0.56,-0.56 h 13.43 a 0.55908,0.55908 0 0 1 0.56,0.56 v 2.83 h 8.4 v -2.83 a 0.55908,0.55908 0 0 1 0.56,-0.56 h 13.43 a 0.557,0.557 0 0 1 0.55,0.56 v 2.83 h 8.4 v -2.83 a 0.55908,0.55908 0 0 1 0.56,-0.56 h 13.43 a 0.55908,0.55908 0 0 1 0.56,0.56 v 2.83 h 8.39 v -2.83 a 0.55908,0.55908 0 0 1 0.56,-0.56 h 13.43 a 0.55908,0.55908 0 0 1 0.56,0.56 v 2.83 h 39.17 a 13.42636,13.42636 0 0 1 13.43,13.43 z"
     id="path42"
     inkscape:connector-curvature="0"
     style="fill:#494949" />
  <rect
     x="135.42804"
     y="627.39874"
     width="579.73529"
     height="2"
     id="rect44"
     style="fill:#494949;stroke-width:0.88933021" />
  <path
     d="M 702.6223,360.82925 H 536.17941 v -3.43053 h -75.47168 v 3.43053 h -167.129 a 11.25861,11.25861 0 0 0 -11.25861,11.25861 v 227.9115 a 11.25864,11.25864 0 0 0 11.25861,11.25863 H 702.6223 a 11.25864,11.25864 0 0 0 11.25861,-11.25865 V 372.08786 A 11.2586,11.2586 0 0 0 702.6223,360.82925 Z"
     id="path46"
     inkscape:connector-curvature="0"
     style="fill:#494949" />
  <circle
     cx="498.42804"
     cy="440.39871"
     r="25"
     stroke-miterlimit="10"
     id="circle48"
     style="fill:none;stroke:#d7d7d7;stroke-width:2;stroke-miterlimit:10" />
  <circle
     cx="490.42804"
     cy="449.39871"
     r="25"
     id="circle50"
     style="fill:#d7d7d7" />
  <rect
     x="0"
     y="663.53333"
     width="189"
     height="2.26159"
     id="rect52"
     style="fill:#494949" />
  <path
     d="m 110.11903,590.69975 c -19.910999,32.5064 -13.060669,72.9409 -13.060669,72.9409 0,0 39.132499,-12.26879 59.043529,-44.7752 19.91103,-32.50641 13.06067,-72.9409 13.06067,-72.9409 0,0 -39.1325,12.2688 -59.04353,44.7752 z"
     id="path56"
     inkscape:connector-curvature="0"
     style="fill:#494949" />
  <path
     d="m 96.245781,663.90906 -1.13209,-0.17932 c -0.40938,-0.0649 -41.158,-6.81651 -65.56214,-36.01491 C 5.1472808,598.51546 5.7345508,557.21513 5.7425508,556.80132 l 0.02429,-1.14573 1.13209,0.17932 c 0.40939,0.0649 41.1580002,6.81651 65.5622802,36.01588 v 0 c 24.40414,29.19841 23.81684,70.49874 23.80885,70.91255 z"
     id="path58"
     inkscape:connector-curvature="0"
     style="fill:#7f7f7f" />
  <path
     d="m 97.853491,664.93711 -1.09375,-0.34277 c -0.39551,-0.124 -39.7207,-12.75586 -59.59766,-45.20605 -19.87695,-32.45118 -13.26269,-73.22266 -13.19433,-73.63086 l 0.1914,-1.12989 1.09375,0.34278 c 0.39551,0.124 39.72071,12.75586 59.59766,45.207 v 0 c 19.876949,32.45019 13.2627,73.22168 13.19434,73.62988 z m -72.081,-117.67773 c -0.90528,6.84277 -4.51368,42.33594 13.09472,71.084 17.60938,28.74707 50.86719,41.65821 57.373,43.96192 0.90527,-6.84278 4.513669,-42.33594 -13.09473,-71.083 v 0 c -17.60937,-28.74808 -50.86718,-41.65921 -57.37304,-43.96292 z"
     id="path60"
     inkscape:connector-curvature="0"
     style="fill:#494949" />
  <circle
     cx="98.300758"
     cy="536.31018"
     r="22"
     id="circle62"
     style="fill:#494949" />
  <polygon
     points="214,131.051 214,129.051 274.417,129.051 274.711,129.348 401.211,256.848 399.789,258.254 273.582,131.051 "
     id="polygon64"
     style="fill:#494949"
     transform="translate(-26.020149,-0.01745996)" />
  <g
     id="g1129"
     transform="translate(-102.02015,-0.01745996)">
    <rect
       id="rect54"
       height="2.26159"
       width="189"
       y="663.55078"
       x="851.02014"
       style="fill:#494949" />
    <path
       id="path110"
       transform="translate(-49.50001,-116.97455)"
       d="m 1038.5,713.02545 h -2 v -15 a 3.00328,3.00328 0 0 1 3,-3 h 5 a 1.00067,1.00067 0 0 0 1,-1 v -10 a 1.00067,1.00067 0 0 0 -1,-1 h -5 a 3.00328,3.00328 0 0 1 -3,-3 v -5 a 1.00067,1.00067 0 0 0 -1,-1 h -9 a 3.00328,3.00328 0 0 1 -3,-3 v -1 a 1.00067,1.00067 0 0 0 -1,-1 h -36 a 1.00067,1.00067 0 0 0 -1,1 v 1 a 3.00328,3.00328 0 0 1 -3,3 h -9 a 1.00067,1.00067 0 0 0 -1,1 v 5 a 3.00328,3.00328 0 0 1 -3,3 h -5 a 1.00067,1.00067 0 0 0 -1,1 v 10 a 1.00067,1.00067 0 0 0 1,1 h 6 a 3.00328,3.00328 0 0 1 3,3 v 15 h -2 v -15 a 1.00067,1.00067 0 0 0 -1,-1 h -6 a 3.00328,3.00328 0 0 1 -3,-3 v -10 a 3.00328,3.00328 0 0 1 3,-3 h 5 a 1.00067,1.00067 0 0 0 1,-1 v -5 a 3.00328,3.00328 0 0 1 3,-3 h 9 a 1.00067,1.00067 0 0 0 1,-1 v -1 a 3.00328,3.00328 0 0 1 3,-3 h 36 a 3.00328,3.00328 0 0 1 3,3 v 1 a 1.00067,1.00067 0 0 0 1,1 h 9 a 3.00328,3.00328 0 0 1 3,3 v 5 a 1.00067,1.00067 0 0 0 1,1 h 5 a 3.00328,3.00328 0 0 1 3,3 v 10 a 3.00328,3.00328 0 0 1 -3,3 h -5 a 1.00067,1.00067 0 0 0 -1,1 z"
       inkscape:connector-curvature="0"
       style="fill:#494949" />
    <path
       id="path112"
       transform="translate(-49.50001,-116.97455)"
       d="m 1035.5,783.02545 h -61 a 3.00328,3.00328 0 0 1 -3,-3 v -43 h 2 v 43 a 1.00067,1.00067 0 0 0 1,1 h 61 a 1.00067,1.00067 0 0 0 1,-1 v -43 h 2 v 43 a 3.00328,3.00328 0 0 1 -3,3 z"
       inkscape:connector-curvature="0"
       style="fill:#494949" />
    <rect
       id="rect114"
       rx="2"
       height="24"
       width="79"
       y="603.0509"
       x="922"
       style="fill:#7f7f7f" />
    <path
       id="path116"
       transform="translate(-49.50001,-116.97455)"
       d="m 1042,738.02545 h -75 a 3.00328,3.00328 0 0 1 -3,-3 v -20 a 3.00328,3.00328 0 0 1 3,-3 h 75 a 3.00328,3.00328 0 0 1 3,3 v 20 a 3.00328,3.00328 0 0 1 -3,3 z m -75,-24 a 1.00067,1.00067 0 0 0 -1,1 v 20 a 1.00067,1.00067 0 0 0 1,1 h 75 a 1.00067,1.00067 0 0 0 1,-1 v -20 a 1.00067,1.00067 0 0 0 -1,-1 z"
       inkscape:connector-curvature="0"
       style="fill:#494949" />
    <path
       id="path118"
       transform="translate(-49.50001,-116.97455)"
       d="m 1002.5,660.02545 v 0 a 249.6283,249.6283 0 0 1 -2.0946,-54.11121 l 2.0946,-29.88879 v 0 c -11.54175,22.96553 -8.93335,53.1922 0,83.99993 z"
       inkscape:connector-curvature="0"
       style="fill:#d7d7d7" />
    <path
       id="path120"
       transform="translate(-49.50001,-116.97455)"
       d="m 1011.5,665.02545 v 0 a 183.49687,183.49687 0 0 1 -1.0078,-32.20905 l 1.0078,-17.79095 v 0 c -5.5531,13.67 -4.2981,31.662 0,50 z"
       inkscape:connector-curvature="0"
       style="fill:#d7d7d7" />
  </g>
  <g
     aria-label="The datalad invocation has its own options. They need to be specified prior to the command specification. "
     transform="matrix(1.8278792,0,0,1.8278792,-765.81801,-689.19212)"
     style="font-style:normal;font-variant:normal;font-weight:normal;font-stretch:normal;font-size:17.5px;line-height:125%;font-family:'DejaVu Sans';-inkscape-font-specification:'DejaVu Sans';text-align:start;letter-spacing:0px;word-spacing:0px;writing-mode:lr-tb;text-anchor:start;fill:#000000;fill-opacity:1;stroke:none;stroke-width:1px;stroke-linecap:butt;stroke-linejoin:miter;stroke-opacity:1"
     id="flowRoot4126">
    <text
       xml:space="preserve"
       style="font-style:normal;font-variant:normal;font-weight:normal;font-stretch:normal;font-size:6.79567px;line-height:1.05;font-family:'Droid Sans';-inkscape-font-specification:'Droid Sans';text-align:start;letter-spacing:0px;word-spacing:0px;text-anchor:start;fill:#333;fill-opacity:1;stroke:none;stroke-width:0.213816px;stroke-linecap:butt;stroke-linejoin:miter;stroke-miterlimit:100000;stroke-opacity:1"
       x="528.37073"
       y="423.565"
       id="text5839-9-5-8-3-2"
       inkscape:export-filename="/home/adina/repos/datalad-handbook/docs/artwork/src/local_wf_simple.png"
       inkscape:export-xdpi="272.60767"
       inkscape:export-ydpi="272.60767"><tspan
         sodipodi:role="line"
         style="font-style:normal;font-variant:normal;font-weight:bold;font-stretch:normal;font-size:18.9655px;font-family:Lato;-inkscape-font-specification:'Lato, Bold';font-variant-ligatures:normal;font-variant-caps:normal;font-variant-numeric:normal;font-variant-east-asian:normal;text-align:center;text-anchor:middle;fill:#333;fill-opacity:1;stroke-width:0.213816px;stroke-linecap:butt;stroke-linejoin:round;stroke-miterlimit:100000"
         x="528.37073"
         y="423.565"
         id="tspan8820-8-0-6-1">Don't forget to configure</tspan><tspan
         sodipodi:role="line"
         style="font-style:normal;font-variant:normal;font-weight:bold;font-stretch:normal;font-size:18.9655px;font-family:Lato;-inkscape-font-specification:'Lato, Bold';font-variant-ligatures:normal;font-variant-caps:normal;font-variant-numeric:normal;font-variant-east-asian:normal;text-align:center;text-anchor:middle;fill:#333;fill-opacity:1;stroke-width:0.213816px;stroke-linecap:butt;stroke-linejoin:round;stroke-miterlimit:100000"
         x="528.37073"
         y="443.47879"
         id="tspan1142"> your Git identity!</tspan></text>
  </g>
</svg>
